<?xml version="1.0" encoding="UTF-8" standalone="no"?>
<!-- Created with Inkscape (http://www.inkscape.org/) -->

<svg
   version="1.1"
   id="svg1"
   width="700"
   height="375"
   viewBox="0 0 700 375"
   sodipodi:docname="map-percent.svg"
   inkscape:version="1.4.2 (1:1.4.2+202505120738+ebf0e940d0)"
   xml:space="preserve"
   xmlns:inkscape="http://www.inkscape.org/namespaces/inkscape"
   xmlns:sodipodi="http://sodipodi.sourceforge.net/DTD/sodipodi-0.dtd"
   xmlns:xlink="http://www.w3.org/1999/xlink"
   xmlns="http://www.w3.org/2000/svg"
   xmlns:svg="http://www.w3.org/2000/svg"><defs
     id="defs1"><filter
       inkscape:collect="always"
       style="color-interpolation-filters:sRGB"
       id="filter1"
       x="-0.0037282747"
       y="-0.0075859497"
       width="1.0074565"
       height="1.0151719"><feGaussianBlur
         inkscape:collect="always"
         stdDeviation="0.46378238"
         id="feGaussianBlur1" /></filter></defs><sodipodi:namedview
     id="namedview1"
     pagecolor="#ffffff"
     bordercolor="#666666"
     borderopacity="1.0"
     inkscape:showpageshadow="2"
     inkscape:pageopacity="0.0"
     inkscape:pagecheckerboard="0"
     inkscape:deskcolor="#d1d1d1"
     inkscape:zoom="1"
     inkscape:cx="536"
     inkscape:cy="164.5"
     inkscape:window-width="2560"
     inkscape:window-height="1403"
     inkscape:window-x="0"
     inkscape:window-y="0"
     inkscape:window-maximized="1"
     inkscape:current-layer="layer1"
     showgrid="false"><inkscape:grid
       id="grid6"
       units="px"
       originx="0"
       originy="0"
       spacingx="1"
       spacingy="1"
       empcolor="#0099e5"
       empopacity="0.30196078"
       color="#0099e5"
       opacity="0.14901961"
       empspacing="5"
       enabled="true"
       visible="false" /></sodipodi:namedview><g
     inkscape:groupmode="layer"
     inkscape:label="Image"
     id="g1"
     sodipodi:insensitive="true"><g
       id="g9"><image
         width="700"
         height="375"
         preserveAspectRatio="none"
         xlink:href="map-percent-1961-qgis.png"
         id="image1"
         x="0"
         y="0" /><text
         xml:space="preserve"
         style="font-style:normal;font-variant:normal;font-weight:normal;font-stretch:normal;font-size:11px;line-height:30.05px;font-family:Roboto;-inkscape-font-specification:'Roboto, Normal';font-variant-ligatures:normal;font-variant-caps:normal;font-variant-numeric:normal;font-variant-east-asian:normal;text-align:center;text-anchor:middle;fill:#c0bfbc"
         x="201.16202"
         y="68.059433"
         id="text1-9-4"><tspan
           sodipodi:role="line"
           id="tspan1-6-6"
           x="201.16202"
           y="68.059433"
           style="font-style:italic;font-variant:normal;font-weight:normal;font-stretch:normal;font-size:11px;font-family:Roboto;-inkscape-font-specification:'Roboto, Normal';font-variant-ligatures:normal;font-variant-caps:normal;font-variant-numeric:normal;font-variant-east-asian:normal;fill:#c0bfbc">no data</tspan></text><text
         xml:space="preserve"
         style="font-style:normal;font-variant:normal;font-weight:normal;font-stretch:normal;font-size:11px;line-height:30.05px;font-family:Roboto;-inkscape-font-specification:'Roboto, Normal';font-variant-ligatures:normal;font-variant-caps:normal;font-variant-numeric:normal;font-variant-east-asian:normal;text-align:center;text-anchor:middle;fill:#c0bfbc"
         x="605.26703"
         y="112.50216"
         id="text1-9-4-7"><tspan
           sodipodi:role="line"
           id="tspan1-6-6-2"
           x="605.26703"
           y="112.50216"
           style="font-style:italic;font-variant:normal;font-weight:normal;font-stretch:normal;font-size:11px;font-family:Roboto;-inkscape-font-specification:'Roboto, Normal';font-variant-ligatures:normal;font-variant-caps:normal;font-variant-numeric:normal;font-variant-east-asian:normal;fill:#c0bfbc">no data</tspan></text></g><image
       width="700"
       height="375"
       preserveAspectRatio="none"
       xlink:href="map-percent-2021-qgis.png"
       id="image1-4"
       x="0"
       y="0" /><rect
       style="fill:#ffffff;fill-opacity:1;fill-rule:evenodd;stroke:#ffffff;stroke-width:2;stroke-linecap:round;stroke-linejoin:round;paint-order:stroke fill markers"
       id="rect1"
       width="700"
       height="375"
       x="-294.6001"
       y="512" /></g><g
     inkscape:groupmode="layer"
     id="layer1"
     inkscape:label="Image 1"><text
       xml:space="preserve"
       style="font-style:normal;font-variant:normal;font-weight:normal;font-stretch:normal;font-size:11px;line-height:12px;font-family:Roboto;-inkscape-font-specification:'Roboto, Normal';font-variant-ligatures:normal;font-variant-caps:normal;font-variant-numeric:normal;font-variant-east-asian:normal;text-align:center;text-anchor:middle;fill:#007fa3;fill-opacity:1"
       x="308.13965"
       y="349.46875"
       id="text1"><tspan
         sodipodi:role="line"
         id="tspan1"
         x="308.13965"
         y="349.46875"
         style="font-style:normal;font-variant:normal;font-weight:normal;font-stretch:normal;font-size:11px;line-height:12px;font-family:Roboto;-inkscape-font-specification:'Roboto, Normal';font-variant-ligatures:normal;font-variant-caps:normal;font-variant-numeric:normal;font-variant-east-asian:normal;fill:#007fa3;fill-opacity:1">Old Toronto</tspan><tspan
         sodipodi:role="line"
         x="308.13965"
         y="361.46875"
         style="font-style:normal;font-variant:normal;font-weight:normal;font-stretch:normal;font-size:11px;line-height:12px;font-family:Roboto;-inkscape-font-specification:'Roboto, Normal';font-variant-ligatures:normal;font-variant-caps:normal;font-variant-numeric:normal;font-variant-east-asian:normal;fill:#007fa3;fill-opacity:1"
         id="tspan6" /></text><text
       xml:space="preserve"
       style="font-style:normal;font-variant:normal;font-weight:normal;font-stretch:normal;font-size:11px;line-height:12px;font-family:Roboto;-inkscape-font-specification:'Roboto, Normal';font-variant-ligatures:normal;font-variant-caps:normal;font-variant-numeric:normal;font-variant-east-asian:normal;text-align:center;text-anchor:middle;fill:#007fa3;fill-opacity:1"
       x="401.27957"
       y="337.58154"
       id="text1-2"><tspan
         sodipodi:role="line"
         x="401.27957"
         y="337.58154"
         style="font-style:normal;font-variant:normal;font-weight:normal;font-stretch:normal;font-size:11px;line-height:12px;font-family:Roboto;-inkscape-font-specification:'Roboto, Normal';font-variant-ligatures:normal;font-variant-caps:normal;font-variant-numeric:normal;font-variant-east-asian:normal;fill:#007fa3;fill-opacity:1"
         id="tspan2" /><tspan
         sodipodi:role="line"
         x="401.27957"
         y="349.58154"
         style="font-style:normal;font-variant:normal;font-weight:normal;font-stretch:normal;font-size:11px;line-height:12px;font-family:Roboto;-inkscape-font-specification:'Roboto, Normal';font-variant-ligatures:normal;font-variant-caps:normal;font-variant-numeric:normal;font-variant-east-asian:normal;text-align:start;text-anchor:start;fill:#007fa3;fill-opacity:1"
         id="tspan5">Current City of Toronto </tspan></text><g
       id="g7"
       transform="translate(518.74103,968.42921)"
       style="opacity:0.89305813;fill:#ffffff;stroke-width:2.6;stroke-dasharray:none;filter:url(#filter1)"><g
         id="g8"
         transform="translate(115.61656,-416.33243)"
         style="opacity:0.819915;stroke-width:2.6;stroke-dasharray:none"><path
           d="m -174.46385,-383.1792 2.55664,-6.37549 h 1.33203 v 7.82032 h -1.03125 v -3.05079 l 0.10205,-3.27099 -2.57275,6.32178 h -0.78418 l -2.56739,-6.33252 0.10206,3.28173 v 3.05079 h -1.03125 v -7.82032 h 1.33203 z m 9.14697,1.44483 q -0.0967,-0.20948 -0.13965,-0.61231 -0.27929,0.29541 -0.69824,0.51025 -0.41895,0.20948 -0.95605,0.20948 -0.89161,0 -1.42872,-0.49951 -0.5371,-0.49952 -0.5371,-1.22461 0,-0.93457 0.70898,-1.41797 0.70898,-0.48877 1.90674,-0.48877 h 0.98291 v -0.46192 q 0,-0.51562 -0.31153,-0.82177 -0.30615,-0.31153 -0.91308,-0.31153 -0.56397,0 -0.91309,0.2793 -0.34375,0.27393 -0.34375,0.63916 h -0.99365 q 0,-0.62305 0.62842,-1.1709 0.62842,-0.54785 1.68115,-0.54785 0.94531,0 1.55225,0.4834 0.60693,0.4834 0.60693,1.46094 v 2.61035 q 0,0.80566 0.2041,1.27832 v 0.0859 z m -1.64893,-0.7627 q 0.53711,0 0.9292,-0.26855 0.39747,-0.26856 0.5586,-0.5962 v -1.19775 h -0.92383 q -1.67578,0.0322 -1.67578,1.07422 0,0.41357 0.2793,0.70361 0.27929,0.28467 0.83251,0.28467 z m 6.36475,-4.2002 q -0.97217,0 -1.32666,0.8379 v 4.125 h -0.99365 v -5.81153 h 0.9668 l 0.0215,0.66602 q 0.47803,-0.77344 1.38037,-0.77344 0.2793,0 0.44043,0.0752 l -0.005,0.92382 q -0.22022,-0.043 -0.4834,-0.043 z m 5.04883,4.9629 -2.01416,-2.69629 -0.62842,0.6499 v 2.04639 h -0.99902 v -8.25 h 0.99902 V -385 l 0.53174,-0.63379 1.80469,-1.91211 h 1.21386 l -2.2666,2.42236 2.52979,3.38917 z m 4.34521,-5.08106 q -0.47802,0 -0.84326,0.25781 -0.36523,0.25782 -0.5747,0.67139 v 4.15186 h -0.99366 v -8.25 h 0.99366 v 3.13134 q 0.66064,-0.80029 1.71337,-0.80029 0.85401,0 1.35352,0.47803 0.50488,0.47802 0.51025,1.60595 v 3.83497 h -0.99902 v -3.81885 q 0,-0.68213 -0.30078,-0.97217 -0.29541,-0.29004 -0.85938,-0.29004 z m 7.23487,5.08106 q -0.0967,-0.20948 -0.13965,-0.61231 -0.2793,0.29541 -0.69824,0.51025 -0.41895,0.20948 -0.95606,0.20948 -0.8916,0 -1.42871,-0.49951 -0.53711,-0.49952 -0.53711,-1.22461 0,-0.93457 0.70899,-1.41797 0.70898,-0.48877 1.90673,-0.48877 h 0.98291 v -0.46192 q 0,-0.51562 -0.31152,-0.82177 -0.30615,-0.31153 -0.91308,-0.31153 -0.56397,0 -0.91309,0.2793 -0.34375,0.27393 -0.34375,0.63916 h -0.99365 q 0,-0.62305 0.62841,-1.1709 0.62842,-0.54785 1.68116,-0.54785 0.94531,0 1.55224,0.4834 0.60694,0.4834 0.60694,1.46094 v 2.61035 q 0,0.80566 0.2041,1.27832 v 0.0859 z m -1.64893,-0.7627 q 0.53711,0 0.9292,-0.26855 0.39746,-0.26856 0.55859,-0.5962 v -1.19775 h -0.92382 q -1.67578,0.0322 -1.67578,1.07422 0,0.41357 0.27929,0.70361 0.2793,0.28467 0.83252,0.28467 z m 6.37012,-4.31836 q -0.97754,0 -1.3374,0.82178 v 4.25928 h -0.99903 v -5.81153 h 0.94532 l 0.0268,0.63379 q 0.62842,-0.74121 1.71875,-0.74121 0.55859,0 0.99365,0.22559 0.44043,0.22021 0.67139,0.70898 0.29004,-0.41895 0.75195,-0.67676 0.46729,-0.25781 1.09571,-0.25781 0.93457,0 1.43945,0.49951 0.51025,0.49951 0.51025,1.60059 v 3.81885 h -0.99902 v -3.82959 q 0,-0.73047 -0.33838,-0.98829 -0.33301,-0.26318 -0.90234,-0.26318 -0.60157,0 -0.94532,0.35986 -0.34375,0.3545 -0.39746,0.86475 v 3.85645 h -0.99365 v -3.82422 q 0,-0.68213 -0.33838,-0.9668 -0.33838,-0.29004 -0.90234,-0.29004 z"
           id="text1-9-2"
           style="font-size:11px;line-height:30.05px;font-family:Roboto;-inkscape-font-specification:'Roboto, Normal';text-align:center;text-anchor:middle;stroke:#ffffff;stroke-width:2.6;stroke-linecap:round;stroke-linejoin:round;stroke-dasharray:none"
           aria-label="Markham" /><path
           d="m -273.87318,-342.48441 v 7.82032 h -1.042 l -3.93701,-6.03174 v 6.03174 h -1.03662 v -7.82032 h 1.03662 l 3.95313,6.04786 v -6.04786 z m 1.41796,4.85547 q 0,-1.2622 0.70899,-2.10547 0.70898,-0.84863 1.92822,-0.84863 1.21924,0 1.92822,0.83252 0.70899,0.82715 0.7251,2.06787 v 0.17725 q 0,1.26221 -0.71435,2.10547 -0.70899,0.84326 -1.92823,0.84326 -1.22461,0 -1.93896,-0.84326 -0.70899,-0.84326 -0.70899,-2.10547 z m 0.99366,0.12354 q 0,0.86474 0.4082,1.49853 0.41357,0.63379 1.24609,0.63379 0.81104,0 1.22461,-0.62304 0.41358,-0.62842 0.41895,-1.49317 v -0.13965 q 0,-0.854 -0.41358,-1.49316 -0.41357,-0.64453 -1.24072,-0.64453 -0.82178,0 -1.23535,0.64453 -0.4082,0.63916 -0.4082,1.49316 z m 7.86328,-2.12158 q -0.97217,0 -1.32666,0.83789 v 4.125 h -0.99365 v -5.81153 h 0.96679 l 0.0215,0.66602 q 0.47802,-0.77344 1.38037,-0.77344 0.27929,0 0.44043,0.0752 l -0.005,0.92383 q -0.22022,-0.043 -0.4834,-0.043 z m 4.13574,4.96289 q -0.33838,0.10742 -0.76807,0.10742 -0.55322,0 -0.94531,-0.33838 -0.39209,-0.33838 -0.39209,-1.21387 v -3.604 h -1.06347 v -0.7627 h 1.06347 v -1.41259 h 0.99365 v 1.41259 h 1.08496 v 0.7627 h -1.08496 v 3.60937 q 0,0.4458 0.19336,0.56934 0.19336,0.12353 0.4458,0.12353 0.18799,0 0.46729,-0.0644 z m 3.55029,-5.08106 q -0.47802,0 -0.84326,0.25781 -0.36523,0.25782 -0.57471,0.67139 v 4.15186 h -0.99365 v -8.25 h 0.99365 v 3.13134 q 0.66065,-0.80029 1.71338,-0.80029 0.85401,0 1.35352,0.47803 0.50488,0.47803 0.51025,1.60596 v 3.83496 h -0.99902 v -3.81885 q 0,-0.68213 -0.30078,-0.97217 -0.29541,-0.29004 -0.85938,-0.29004 z m 6.88575,-2.73926 2.03027,3.92627 2.03564,-3.92627 h 1.17627 l -2.69629,4.89844 v 2.92188 h -1.03662 v -2.92188 l -2.69629,-4.89844 z m 5.48388,4.85547 q 0,-1.2622 0.70899,-2.10547 0.70898,-0.84863 1.92822,-0.84863 1.21924,0 1.92822,0.83252 0.70899,0.82715 0.7251,2.06787 v 0.17725 q 0,1.26221 -0.71436,2.10547 -0.70898,0.84326 -1.92822,0.84326 -1.22461,0 -1.93896,-0.84326 -0.70899,-0.84326 -0.70899,-2.10547 z m 0.99365,0.12354 q 0,0.86474 0.40821,1.49853 0.41357,0.63379 1.24609,0.63379 0.81104,0 1.22461,-0.62304 0.41358,-0.62842 0.41895,-1.49317 v -0.13965 q 0,-0.854 -0.41358,-1.49316 -0.41357,-0.64453 -1.24072,-0.64453 -0.82178,0 -1.23535,0.64453 -0.40821,0.63916 -0.40821,1.49316 z m 7.86329,-2.12158 q -0.97217,0 -1.32666,0.83789 v 4.125 h -0.99366 v -5.81153 h 0.9668 l 0.0215,0.66602 q 0.47803,-0.77344 1.38038,-0.77344 0.27929,0 0.44043,0.0752 l -0.005,0.92383 q -0.22021,-0.043 -0.48339,-0.043 z m 5.04882,4.96289 -2.01416,-2.69629 -0.62841,0.6499 v 2.04639 h -0.99903 v -8.25 h 0.99903 v 4.98437 l 0.53173,-0.63379 1.80469,-1.91211 h 1.21387 l -2.2666,2.42237 2.52978,3.38916 z"
           id="text1-9-3-7"
           style="font-size:11px;line-height:30.05px;font-family:Roboto;-inkscape-font-specification:'Roboto, Normal';text-align:center;text-anchor:middle;stroke:#ffffff;stroke-width:2.6;stroke-linecap:round;stroke-linejoin:round;stroke-dasharray:none"
           aria-label="North York" /><path
           d="m -205.82777,-298.12357 q 0,-0.53711 -0.36524,-0.85937 -0.35986,-0.32227 -1.52002,-0.66065 -1.16015,-0.34375 -1.83691,-0.87011 -0.67139,-0.53174 -0.67139,-1.43408 0,-0.91309 0.7251,-1.52002 0.73047,-0.60694 1.93359,-0.60694 1.32129,0 2.03565,0.7251 0.71972,0.7251 0.71972,1.63818 h -1.03125 q 0,-0.65527 -0.42431,-1.08496 -0.42432,-0.42968 -1.29981,-0.42968 -0.82715,0 -1.22461,0.36523 -0.39746,0.35986 -0.39746,0.90234 0,0.48877 0.41895,0.81641 0.42431,0.32227 1.375,0.59082 1.35888,0.38135 1.98193,0.94531 0.62305,0.5586 0.62305,1.47168 0,0.95606 -0.74658,1.52539 -0.74659,0.56934 -1.98194,0.56934 -0.71972,0 -1.40185,-0.26856 -0.67676,-0.26855 -1.11719,-0.79492 -0.43506,-0.53174 -0.43506,-1.31054 h 1.03125 q 0,0.80029 0.58545,1.16552 0.58545,0.36524 1.3374,0.36524 0.81104,0 1.2461,-0.33301 0.44043,-0.33838 0.44043,-0.90772 z m 4.53857,1.26758 q 0.53174,0 0.9292,-0.31689 0.40283,-0.3169 0.44043,-0.81104 h 0.94531 q -0.0376,0.77881 -0.71435,1.36426 -0.67676,0.58008 -1.60059,0.58008 -1.31055,0 -1.94971,-0.86475 -0.63379,-0.86474 -0.63379,-2.03564 v -0.22559 q 0,-1.1709 0.63379,-2.03564 0.63916,-0.86475 1.94971,-0.86475 1.02051,0 1.64893,0.60694 0.62841,0.60156 0.66601,1.49853 h -0.94531 q -0.0376,-0.53711 -0.4082,-0.91309 -0.36524,-0.37597 -0.96143,-0.37597 -0.6123,0 -0.96143,0.31152 -0.34375,0.31152 -0.48877,0.78955 -0.13964,0.47803 -0.13964,0.98291 v 0.22559 q 0,0.51025 0.13964,0.98828 0.13965,0.47803 0.4834,0.78955 0.34912,0.30615 0.9668,0.30615 z m 7.02002,0.70899 q -0.0967,-0.20948 -0.13965,-0.61231 -0.2793,0.29541 -0.69824,0.51026 -0.41895,0.20947 -0.95606,0.20947 -0.8916,0 -1.42871,-0.49951 -0.53711,-0.49951 -0.53711,-1.22461 0,-0.93457 0.70899,-1.41797 0.70898,-0.48877 1.90674,-0.48877 h 0.98291 v -0.46191 q 0,-0.51563 -0.31153,-0.82178 -0.30615,-0.31153 -0.91308,-0.31153 -0.56397,0 -0.91309,0.2793 -0.34375,0.27393 -0.34375,0.63916 h -0.99365 q 0,-0.62305 0.62842,-1.1709 0.62842,-0.54785 1.68115,-0.54785 0.94531,0 1.55225,0.4834 0.60693,0.4834 0.60693,1.46094 v 2.61035 q 0,0.80566 0.2041,1.27832 v 0.0859 z m -1.64893,-0.7627 q 0.53711,0 0.9292,-0.26855 0.39746,-0.26856 0.5586,-0.59619 v -1.19776 h -0.92383 q -1.67578,0.0322 -1.67578,1.07422 0,0.41357 0.27929,0.70361 0.2793,0.28467 0.83252,0.28467 z m 6.36475,-4.20019 q -0.97217,0 -1.32666,0.83789 v 4.125 h -0.99365 v -5.81153 h 0.96679 l 0.0215,0.66602 q 0.47803,-0.77344 1.38037,-0.77344 0.2793,0 0.44043,0.0752 l -0.005,0.92382 q -0.22022,-0.043 -0.4834,-0.043 z m 6.32715,2.12158 q 0,1.27295 -0.59082,2.11084 -0.59082,0.83789 -1.67041,0.83789 -1.10108,0 -1.69727,-0.77881 l -0.0537,0.67139 h -0.91308 v -8.25 h 0.99902 v 3.06689 q 0.59082,-0.73584 1.6543,-0.73584 1.0957,0 1.68115,0.81641 0.59082,0.8164 0.59082,2.14844 z m -2.51904,-2.23975 q -0.54248,0 -0.88086,0.26319 -0.33838,0.25781 -0.52637,0.63916 v 2.52978 q 0.19336,0.38672 0.53711,0.6499 0.34375,0.26319 0.88086,0.26319 0.80566,0 1.15478,-0.61768 0.3545,-0.62305 0.3545,-1.48779 v -0.11279 q 0,-0.86475 -0.33838,-1.49317 -0.33301,-0.63379 -1.18164,-0.63379 z m 3.51269,2.11621 q 0,-1.2622 0.70899,-2.10547 0.70898,-0.84863 1.92822,-0.84863 1.21924,0 1.92822,0.83252 0.70898,0.82715 0.7251,2.06787 v 0.17725 q 0,1.26221 -0.71436,2.10547 -0.70898,0.84326 -1.92822,0.84326 -1.22461,0 -1.93896,-0.84326 -0.70899,-0.84326 -0.70899,-2.10547 z m 0.99365,0.12354 q 0,0.86474 0.40821,1.49853 0.41357,0.63379 1.24609,0.63379 0.81104,0 1.22461,-0.62304 0.41357,-0.62842 0.41894,-1.49317 v -0.13965 q 0,-0.854 -0.41357,-1.49316 -0.41357,-0.64453 -1.24072,-0.64453 -0.82178,0 -1.23535,0.64453 -0.40821,0.63916 -0.40821,1.49316 z m 7.86328,-2.12158 q -0.97216,0 -1.32666,0.83789 v 4.125 h -0.99365 v -5.81153 h 0.9668 l 0.0215,0.66602 q 0.47803,-0.77344 1.38037,-0.77344 0.2793,0 0.44043,0.0752 l -0.005,0.92382 q -0.22021,-0.043 -0.4834,-0.043 z m 1.03663,1.99804 q 0,-1.2622 0.70898,-2.10547 0.70898,-0.84863 1.92822,-0.84863 1.21924,0 1.92823,0.83252 0.70898,0.82715 0.72509,2.06787 v 0.17725 q 0,1.26221 -0.71435,2.10547 -0.70899,0.84326 -1.92823,0.84326 -1.2246,0 -1.93896,-0.84326 -0.70898,-0.84326 -0.70898,-2.10547 z m 0.99365,0.12354 q 0,0.86474 0.4082,1.49853 0.41358,0.63379 1.24609,0.63379 0.81104,0 1.22461,-0.62304 0.41358,-0.62842 0.41895,-1.49317 v -0.13965 q 0,-0.854 -0.41357,-1.49316 -0.41358,-0.64453 -1.24073,-0.64453 -0.82177,0 -1.23535,0.64453 -0.4082,0.63916 -0.4082,1.49316 z m 9.14697,2.84131 -0.0215,-0.57471 q -0.56934,0.68213 -1.69727,0.68213 -0.854,0 -1.38037,-0.50488 -0.52637,-0.50489 -0.52637,-1.66504 v -3.74903 h 0.99365 v 3.75977 q 0,0.78418 0.32764,1.05273 0.33301,0.26319 0.74121,0.26319 1.12256,0 1.51465,-0.84326 v -4.23243 h 0.99902 v 5.81153 z m 4.66748,2.29345 q -0.45117,0 -1.10644,-0.22021 -0.65528,-0.22022 -1.04737,-0.78955 l 0.521,-0.59082 q 0.64453,0.78418 1.55762,0.78418 0.70361,0 1.12255,-0.39746 0.41895,-0.39209 0.41895,-1.15479 v -0.51025 q -0.59082,0.69287 -1.62744,0.69287 -1.04737,0 -1.66504,-0.83789 -0.61768,-0.83789 -0.61768,-2.11084 v -0.11279 q 0,-1.33204 0.61231,-2.14844 0.61767,-0.81641 1.68115,-0.81641 1.06885,0 1.65967,0.75195 l 0.0483,-0.64453 h 0.90234 v 5.68799 q 0,1.15479 -0.6875,1.7832 -0.6875,0.63379 -1.77246,0.63379 z m -1.45019,-5.13476 q 0,0.86474 0.35986,1.48779 0.36523,0.61768 1.1709,0.61768 0.94531,0 1.38574,-0.85938 v -2.64795 q -0.18799,-0.35986 -0.521,-0.59619 -0.333,-0.2417 -0.854,-0.2417 -0.81104,0 -1.17627,0.63379 -0.36523,0.62842 -0.36523,1.49317 z m 7.83105,-2.23975 q -0.47803,0 -0.84326,0.25781 -0.36524,0.25782 -0.57471,0.67139 v 4.15186 h -0.99365 v -8.25 h 0.99365 v 3.13134 q 0.66065,-0.80029 1.71338,-0.80029 0.854,0 1.35352,0.47803 0.50488,0.47803 0.51025,1.60596 v 3.83496 h -0.99902 v -3.81885 q 0,-0.68213 -0.30078,-0.97217 -0.29541,-0.29004 -0.85938,-0.29004 z"
           id="text1-9-3-2-64"
           style="font-size:11px;line-height:30.05px;font-family:Roboto;-inkscape-font-specification:'Roboto, Normal';text-align:center;text-anchor:middle;stroke:#ffffff;stroke-width:2.6;stroke-linecap:round;stroke-linejoin:round;stroke-dasharray:none"
           aria-label="Scarborough" /><path
           d="m -379.83807,-316.09616 v -7.82031 h 4.91455 v 0.84863 h -3.87793 v 2.51367 h 3.38379 v 0.84326 h -3.38379 v 2.77149 h 3.93164 v 0.84326 z m 8.56152,0 q -0.33838,0.10742 -0.76807,0.10742 -0.55322,0 -0.94531,-0.33838 -0.39209,-0.33838 -0.39209,-1.21387 v -3.604 h -1.06348 v -0.76269 h 1.06348 v -1.4126 h 0.99365 v 1.4126 h 1.08496 v 0.76269 h -1.08496 v 3.60938 q 0,0.4458 0.19336,0.56933 0.19336,0.12354 0.4458,0.12354 0.18799,0 0.46729,-0.0645 z m 0.76807,-2.96484 q 0,-1.26221 0.70898,-2.10547 0.70898,-0.84864 1.92822,-0.84864 1.21924,0 1.92823,0.83252 0.70898,0.82715 0.72509,2.06787 v 0.17725 q 0,1.26221 -0.71435,2.10547 -0.70899,0.84326 -1.92822,0.84326 -1.22461,0 -1.93897,-0.84326 -0.70898,-0.84326 -0.70898,-2.10547 z m 0.99365,0.12353 q 0,0.86475 0.4082,1.49854 0.41358,0.63378 1.2461,0.63378 0.81103,0 1.2246,-0.62304 0.41358,-0.62842 0.41895,-1.49317 v -0.13964 q 0,-0.85401 -0.41357,-1.49317 -0.41358,-0.64453 -1.24073,-0.64453 -0.82177,0 -1.23535,0.64453 -0.4082,0.63916 -0.4082,1.49317 z m 10.46289,0 q 0,1.27295 -0.59082,2.11084 -0.59082,0.83789 -1.67041,0.83789 -1.10108,0 -1.69727,-0.77881 l -0.0537,0.67139 h -0.91308 v -8.25 h 0.99902 v 3.06689 q 0.59082,-0.73584 1.6543,-0.73584 1.0957,0 1.68115,0.81641 0.59082,0.81641 0.59082,2.14844 z m -2.51904,-2.23975 q -0.54248,0 -0.88086,0.26319 -0.33838,0.25781 -0.52637,0.63916 v 2.52978 q 0.19336,0.38672 0.53711,0.64991 0.34375,0.26318 0.88086,0.26318 0.80566,0 1.15478,-0.61768 0.3545,-0.62304 0.3545,-1.48779 v -0.11279 q 0,-0.86475 -0.33838,-1.49317 -0.33301,-0.63379 -1.18164,-0.63379 z m 3.78125,-2.27197 q 0,-0.2417 0.14502,-0.4082 0.15039,-0.16651 0.44043,-0.16651 0.28466,0 0.43505,0.16651 0.15577,0.1665 0.15577,0.4082 0,0.23096 -0.15577,0.39746 -0.15039,0.16114 -0.43505,0.16114 -0.29004,0 -0.44043,-0.16114 -0.14502,-0.1665 -0.14502,-0.39746 z m 1.07421,1.54151 v 5.81152 h -0.99902 v -5.81152 z m 3.9209,5.10253 q 0.53174,0 0.9292,-0.31689 0.40283,-0.31689 0.44043,-0.81103 h 0.94531 q -0.0376,0.7788 -0.71435,1.36425 -0.67676,0.58008 -1.60059,0.58008 -1.31054,0 -1.9497,-0.86475 -0.63379,-0.86474 -0.63379,-2.03564 v -0.22559 q 0,-1.17089 0.63379,-2.03564 0.63916,-0.86475 1.9497,-0.86475 1.02051,0 1.64893,0.60694 0.62842,0.60156 0.66601,1.49853 h -0.94531 q -0.0376,-0.53711 -0.4082,-0.91308 -0.36524,-0.37598 -0.96143,-0.37598 -0.6123,0 -0.96142,0.31152 -0.34375,0.31153 -0.48877,0.78955 -0.13965,0.47803 -0.13965,0.98291 v 0.22559 q 0,0.51025 0.13965,0.98828 0.13965,0.47803 0.4834,0.78955 0.34912,0.30615 0.96679,0.30615 z m 3.16895,-2.25585 q 0,-1.26221 0.70898,-2.10547 0.70899,-0.84864 1.92823,-0.84864 1.21923,0 1.92822,0.83252 0.70898,0.82715 0.7251,2.06787 v 0.17725 q 0,1.26221 -0.71436,2.10547 -0.70898,0.84326 -1.92822,0.84326 -1.22461,0 -1.93897,-0.84326 -0.70898,-0.84326 -0.70898,-2.10547 z m 0.99365,0.12353 q 0,0.86475 0.4082,1.49854 0.41358,0.63378 1.2461,0.63378 0.81103,0 1.22461,-0.62304 0.41357,-0.62842 0.41894,-1.49317 v -0.13964 q 0,-0.85401 -0.41357,-1.49317 -0.41358,-0.64453 -1.24072,-0.64453 -0.82178,0 -1.23536,0.64453 -0.4082,0.63916 -0.4082,1.49317 z m 9.18457,2.84131 -2.01416,-2.69629 -0.62842,0.6499 v 2.04639 h -0.99902 v -8.25 h 0.99902 v 4.98437 l 0.53174,-0.63378 1.80469,-1.91211 h 1.21387 l -2.26661,2.42236 2.52979,3.38916 z m 6.42383,-1.01514 q -0.28467,0.42969 -0.80566,0.77881 -0.521,0.34375 -1.38038,0.34375 -1.21386,0 -1.94433,-0.78955 -0.7251,-0.78955 -0.7251,-2.01953 v -0.22559 q 0,-0.95068 0.35986,-1.6167 0.36524,-0.67138 0.94532,-1.0205 0.58007,-0.3545 1.23535,-0.3545 1.24609,0 1.81543,0.81641 0.5747,0.81104 0.5747,2.03027 v 0.4458 h -3.93164 q 0.0215,0.8003 0.47266,1.36426 0.45654,0.5586 1.25147,0.5586 0.52636,0 0.8916,-0.21485 0.36523,-0.21484 0.63916,-0.5747 z m -2.31494,-4.0874 q -0.59082,0 -0.99903,0.42969 -0.4082,0.42969 -0.51025,1.23535 h 2.90576 v -0.0752 q -0.0376,-0.58007 -0.33838,-1.08496 -0.29541,-0.50488 -1.0581,-0.50488 z"
           id="text1-9-3-2-6-3"
           style="font-size:11px;line-height:30.05px;font-family:Roboto;-inkscape-font-specification:'Roboto, Normal';text-align:center;text-anchor:middle;stroke:#ffffff;stroke-width:2.6;stroke-linecap:round;stroke-linejoin:round;stroke-dasharray:none"
           aria-label="Etobicoke" /><path
           d="m -315.38098,-433.68982 -2.89502,7.82031 h -0.91846 l -2.88965,-7.82031 h 1.12256 l 2.21826,6.44531 2.23975,-6.44531 z m 4.24316,7.82031 q -0.0967,-0.20947 -0.13965,-0.6123 -0.27929,0.29541 -0.69824,0.51025 -0.41894,0.20948 -0.95605,0.20948 -0.8916,0 -1.42871,-0.49952 -0.53711,-0.49951 -0.53711,-1.22461 0,-0.93457 0.70898,-1.41796 0.70899,-0.48877 1.90674,-0.48877 h 0.98291 v -0.46192 q 0,-0.51562 -0.31152,-0.82178 -0.30616,-0.31152 -0.91309,-0.31152 -0.56396,0 -0.91309,0.2793 -0.34375,0.27392 -0.34375,0.63916 h -0.99365 q 0,-0.62305 0.62842,-1.1709 0.62842,-0.54785 1.68115,-0.54785 0.94531,0 1.55225,0.4834 0.60693,0.48339 0.60693,1.46093 v 2.61036 q 0,0.80566 0.2041,1.27832 v 0.0859 z m -1.64892,-0.76269 q 0.53711,0 0.9292,-0.26856 0.39746,-0.26855 0.55859,-0.59619 v -1.19775 h -0.92383 q -1.67578,0.0322 -1.67578,1.07422 0,0.41357 0.2793,0.70361 0.27929,0.28467 0.83252,0.28467 z m 7.64843,0.76269 -0.0215,-0.5747 q -0.56934,0.68213 -1.69727,0.68213 -0.854,0 -1.38037,-0.50489 -0.52636,-0.50488 -0.52636,-1.66504 v -3.74902 h 0.99365 v 3.75977 q 0,0.78418 0.32764,1.05273 0.333,0.26318 0.74121,0.26318 1.12255,0 1.51464,-0.84326 v -4.23242 h 0.99903 v 5.81152 z m 4.66748,2.29346 q -0.45117,0 -1.10644,-0.22021 -0.65527,-0.22022 -1.04736,-0.78956 l 0.52099,-0.59082 q 0.64453,0.78418 1.55762,0.78418 0.70361,0 1.12256,-0.39746 0.41894,-0.39209 0.41894,-1.15478 v -0.51026 q -0.59082,0.69288 -1.62744,0.69288 -1.04736,0 -1.66504,-0.8379 -0.61767,-0.83789 -0.61767,-2.11084 v -0.11279 q 0,-1.33203 0.6123,-2.14844 0.61768,-0.8164 1.68115,-0.8164 1.06885,0 1.65967,0.75195 l 0.0483,-0.64453 h 0.90235 v 5.68799 q 0,1.15478 -0.6875,1.7832 -0.6875,0.63379 -1.77247,0.63379 z m -1.45019,-5.13477 q 0,0.86475 0.35986,1.4878 0.36524,0.61767 1.1709,0.61767 0.94531,0 1.38574,-0.85937 v -2.64795 q -0.18798,-0.35986 -0.52099,-0.59619 -0.33301,-0.2417 -0.85401,-0.2417 -0.81103,0 -1.17627,0.63379 -0.36523,0.62842 -0.36523,1.49316 z m 7.83105,-2.23974 q -0.47802,0 -0.84326,0.25781 -0.36523,0.25781 -0.5747,0.67139 v 4.15185 h -0.99366 v -8.25 h 0.99366 v 3.13135 q 0.66064,-0.80029 1.71337,-0.80029 0.85401,0 1.35352,0.47803 0.50488,0.47802 0.51025,1.60595 v 3.83496 h -0.99902 v -3.81884 q 0,-0.68213 -0.30078,-0.97217 -0.29541,-0.29004 -0.85938,-0.29004 z m 7.23487,5.08105 q -0.0967,-0.20947 -0.13965,-0.6123 -0.2793,0.29541 -0.69824,0.51025 -0.41895,0.20948 -0.95606,0.20948 -0.8916,0 -1.42871,-0.49952 -0.53711,-0.49951 -0.53711,-1.22461 0,-0.93457 0.70899,-1.41796 0.70898,-0.48877 1.90673,-0.48877 h 0.98291 v -0.46192 q 0,-0.51562 -0.31152,-0.82178 -0.30615,-0.31152 -0.91308,-0.31152 -0.56397,0 -0.91309,0.2793 -0.34375,0.27392 -0.34375,0.63916 h -0.99365 q 0,-0.62305 0.62841,-1.1709 0.62842,-0.54785 1.68116,-0.54785 0.94531,0 1.55224,0.4834 0.60694,0.48339 0.60694,1.46093 v 2.61036 q 0,0.80566 0.2041,1.27832 v 0.0859 z m -1.64893,-0.76269 q 0.53711,0 0.9292,-0.26856 0.39746,-0.26855 0.55859,-0.59619 v -1.19775 h -0.92382 q -1.67578,0.0322 -1.67578,1.07422 0,0.41357 0.27929,0.70361 0.2793,0.28467 0.83252,0.28467 z m 6.45606,-4.31836 q -0.47803,0 -0.84327,0.25781 -0.36523,0.25781 -0.5747,0.67139 v 4.15185 h -0.99365 v -5.81152 h 0.93994 l 0.0322,0.7251 q 0.66065,-0.83252 1.73487,-0.83252 0.854,0 1.35351,0.47803 0.50488,0.47802 0.51026,1.60595 v 3.83496 h -0.99903 v -3.81884 q 0,-0.68213 -0.30078,-0.97217 -0.29541,-0.29004 -0.85937,-0.29004 z"
           id="text1-9-1-97"
           style="font-size:11px;line-height:30.05px;font-family:Roboto;-inkscape-font-specification:'Roboto, Normal';text-align:center;text-anchor:middle;stroke:#ffffff;stroke-width:2.6;stroke-linecap:round;stroke-linejoin:round;stroke-dasharray:none"
           aria-label="Vaughan" /><path
           d="m -158.56102,-531.57031 v 7.82031 h -1.04199 l -3.93701,-6.03174 v 6.03174 h -1.03662 v -7.82031 h 1.03662 l 3.95312,6.04785 v -6.04785 z m 6.27881,6.80517 q -0.28467,0.42969 -0.80567,0.77881 -0.52099,0.34375 -1.38037,0.34375 -1.21386,0 -1.94433,-0.78955 -0.7251,-0.78955 -0.7251,-2.01953 v -0.22559 q 0,-0.95068 0.35986,-1.6167 0.36524,-0.67138 0.94532,-1.0205 0.58007,-0.3545 1.23535,-0.3545 1.24609,0 1.81543,0.81641 0.5747,0.81104 0.5747,2.03027 v 0.44581 h -3.93164 q 0.0215,0.80029 0.47266,1.36425 0.45654,0.5586 1.25146,0.5586 0.52637,0 0.89161,-0.21485 0.36523,-0.21484 0.63916,-0.5747 z m -2.31494,-4.0874 q -0.59082,0 -0.99903,0.42969 -0.4082,0.42969 -0.51025,1.23535 h 2.90576 v -0.0752 q -0.0376,-0.58007 -0.33838,-1.08496 -0.29541,-0.50488 -1.0581,-0.50488 z m 10.80127,-0.70898 -1.68653,5.81152 h -0.80566 l -1.4126,-4.39893 -1.375,4.39893 h -0.81103 l -1.68653,-5.81152 h 0.99366 l 1.14404,4.33984 1.35351,-4.33984 h 0.8003 l 1.375,4.43115 1.12256,-4.43115 z m 3.34082,0.73047 q -0.97754,0 -1.33741,0.82177 v 4.25928 h -0.99902 v -5.81152 h 0.94531 l 0.0269,0.63379 q 0.62842,-0.74122 1.71875,-0.74122 0.55859,0 0.99365,0.22559 0.44043,0.22022 0.67139,0.70899 0.29004,-0.41895 0.75195,-0.67676 0.46729,-0.25782 1.0957,-0.25782 0.93457,0 1.43946,0.49952 0.51025,0.49951 0.51025,1.60058 v 3.81885 h -0.99902 v -3.82959 q 0,-0.73047 -0.33838,-0.98828 -0.33301,-0.26318 -0.90234,-0.26318 -0.60157,0 -0.94532,0.35986 -0.34375,0.35449 -0.39746,0.86474 v 3.85645 h -0.99365 v -3.82422 q 0,-0.68213 -0.33838,-0.9668 -0.33838,-0.29003 -0.90234,-0.29003 z m 10.90869,5.08105 q -0.0967,-0.20947 -0.13965,-0.6123 -0.2793,0.29541 -0.69824,0.51025 -0.41895,0.20947 -0.95606,0.20947 -0.8916,0 -1.42871,-0.49951 -0.53711,-0.49951 -0.53711,-1.22461 0,-0.93457 0.70899,-1.41797 0.70898,-0.48877 1.90674,-0.48877 h 0.98291 v -0.46191 q 0,-0.51563 -0.31153,-0.82178 -0.30615,-0.31152 -0.91308,-0.31152 -0.56397,0 -0.91309,0.27929 -0.34375,0.27393 -0.34375,0.63916 h -0.99365 q 0,-0.62304 0.62842,-1.17089 0.62841,-0.54786 1.68115,-0.54786 0.94531,0 1.55224,0.4834 0.60694,0.4834 0.60694,1.46094 v 2.61035 q 0,0.80567 0.2041,1.27832 v 0.0859 z m -1.64893,-0.7627 q 0.53711,0 0.9292,-0.26855 0.39746,-0.26855 0.5586,-0.59619 v -1.19776 h -0.92383 q -1.67578,0.0322 -1.67578,1.07422 0,0.41358 0.27929,0.70362 0.2793,0.28466 0.83252,0.28466 z m 6.36475,-4.20019 q -0.97217,0 -1.32666,0.83789 v 4.125 h -0.99365 v -5.81152 h 0.96679 l 0.0215,0.66601 q 0.47802,-0.77344 1.38037,-0.77344 0.2793,0 0.44043,0.0752 l -0.005,0.92383 q -0.22022,-0.043 -0.4834,-0.043 z m 5.04883,4.96289 -2.01416,-2.69629 -0.62842,0.6499 v 2.04639 h -0.99902 V -532 h 0.99902 v 4.98438 l 0.53174,-0.63379 1.80468,-1.91211 h 1.21387 l -2.2666,2.42236 2.52979,3.38916 z m 6.42383,-1.01514 q -0.28467,0.42969 -0.80567,0.77881 -0.521,0.34375 -1.38037,0.34375 -1.21387,0 -1.94434,-0.78955 -0.72509,-0.78955 -0.72509,-2.01953 v -0.22559 q 0,-0.95068 0.35986,-1.6167 0.36523,-0.67138 0.94531,-1.0205 0.58008,-0.3545 1.23535,-0.3545 1.2461,0 1.81543,0.81641 0.57471,0.81104 0.57471,2.03027 v 0.44581 h -3.93164 q 0.0215,0.80029 0.47266,1.36425 0.45654,0.5586 1.25146,0.5586 0.52637,0 0.8916,-0.21485 0.36524,-0.21484 0.63916,-0.5747 z m -2.31495,-4.0874 q -0.59082,0 -0.99902,0.42969 -0.4082,0.42969 -0.51025,1.23535 h 2.90576 v -0.0752 q -0.0376,-0.58007 -0.33838,-1.08496 -0.29541,-0.50488 -1.05811,-0.50488 z m 6.01026,5.10254 q -0.33838,0.10742 -0.76807,0.10742 -0.55322,0 -0.94531,-0.33838 -0.39209,-0.33838 -0.39209,-1.21386 v -3.60401 h -1.06348 v -0.76269 h 1.06348 v -1.4126 h 0.99365 v 1.4126 h 1.08496 v 0.76269 h -1.08496 v 3.60938 q 0,0.4458 0.19336,0.56933 0.19336,0.12354 0.4458,0.12354 0.18799,0 0.46729,-0.0645 z"
           id="text1-9-1-9-9"
           style="font-size:11px;line-height:30.05px;font-family:Roboto;-inkscape-font-specification:'Roboto, Normal';text-align:center;text-anchor:middle;stroke:#ffffff;stroke-width:2.6;stroke-linecap:round;stroke-linejoin:round;stroke-dasharray:none"
           aria-label="Newmarket" /><path
           d="m -463.71631,-317.86325 2.55664,-6.37549 h 1.33203 v 7.82031 h -1.03125 v -3.05078 l 0.10205,-3.27099 -2.57275,6.32177 h -0.78418 l -2.56738,-6.33252 0.10205,3.28174 v 3.05078 h -1.03125 v -7.82031 h 1.33203 z m 5.56445,-5.9082 q 0,-0.2417 0.14502,-0.40821 0.15039,-0.1665 0.44043,-0.1665 0.28467,0 0.43506,0.1665 0.15576,0.16651 0.15576,0.40821 0,0.23095 -0.15576,0.39746 -0.15039,0.16113 -0.43506,0.16113 -0.29004,0 -0.44043,-0.16113 -0.14502,-0.16651 -0.14502,-0.39746 z m 1.07422,1.5415 v 5.81152 h -0.99902 v -5.81152 z m 4.97901,4.27002 q 0,-0.31689 -0.23633,-0.56934 -0.23096,-0.25781 -1.07422,-0.42968 -0.97217,-0.19873 -1.54687,-0.57471 -0.57471,-0.38135 -0.57471,-1.10645 0,-0.6875 0.58545,-1.19238 0.59082,-0.50488 1.56836,-0.50488 1.04199,0 1.62744,0.53174 0.58545,0.53173 0.58545,1.28369 h -0.99365 q 0,-0.35987 -0.3169,-0.67676 -0.31689,-0.32227 -0.90234,-0.32227 -0.61768,0 -0.88623,0.26856 -0.26856,0.26855 -0.26856,0.58545 0,0.31689 0.24707,0.51562 0.25244,0.19336 1.06348,0.37598 1.06885,0.2417 1.58984,0.63379 0.52637,0.39209 0.52637,1.10644 0,0.76807 -0.61768,1.2461 -0.6123,0.47803 -1.62744,0.47803 -1.15478,0 -1.76709,-0.59082 -0.6123,-0.59083 -0.6123,-1.31055 h 0.99902 q 0.0322,0.61767 0.47266,0.854 0.4458,0.23096 0.90771,0.23096 0.60694,0 0.9292,-0.23633 0.32227,-0.23633 0.32227,-0.59619 z m 5.67724,0 q 0,-0.31689 -0.23632,-0.56934 -0.23096,-0.25781 -1.07422,-0.42968 -0.97217,-0.19873 -1.54688,-0.57471 -0.57471,-0.38135 -0.57471,-1.10645 0,-0.6875 0.58545,-1.19238 0.59082,-0.50488 1.56836,-0.50488 1.042,0 1.62744,0.53174 0.58545,0.53173 0.58545,1.28369 h -0.99365 q 0,-0.35987 -0.31689,-0.67676 -0.3169,-0.32227 -0.90235,-0.32227 -0.61767,0 -0.88623,0.26856 -0.26855,0.26855 -0.26855,0.58545 0,0.31689 0.24707,0.51562 0.25244,0.19336 1.06347,0.37598 1.06885,0.2417 1.58985,0.63379 0.52637,0.39209 0.52637,1.10644 0,0.76807 -0.61768,1.2461 -0.6123,0.47803 -1.62744,0.47803 -1.15479,0 -1.76709,-0.59082 -0.61231,-0.59083 -0.61231,-1.31055 h 0.99903 q 0.0322,0.61767 0.47265,0.854 0.4458,0.23096 0.90772,0.23096 0.60693,0 0.9292,-0.23633 0.32226,-0.23633 0.32226,-0.59619 z m 2.29883,-5.81152 q 0,-0.2417 0.14502,-0.40821 0.15039,-0.1665 0.44043,-0.1665 0.28467,0 0.43506,0.1665 0.15576,0.16651 0.15576,0.40821 0,0.23095 -0.15576,0.39746 -0.15039,0.16113 -0.43506,0.16113 -0.29004,0 -0.44043,-0.16113 -0.14502,-0.16651 -0.14502,-0.39746 z m 1.07422,1.5415 v 5.81152 h -0.99902 v -5.81152 z m 4.979,4.27002 q 0,-0.31689 -0.23632,-0.56934 -0.23096,-0.25781 -1.07422,-0.42968 -0.97217,-0.19873 -1.54688,-0.57471 -0.5747,-0.38135 -0.5747,-1.10645 0,-0.6875 0.58544,-1.19238 0.59082,-0.50488 1.56836,-0.50488 1.042,0 1.62745,0.53174 0.58544,0.53173 0.58544,1.28369 h -0.99365 q 0,-0.35987 -0.31689,-0.67676 -0.3169,-0.32227 -0.90235,-0.32227 -0.61767,0 -0.88623,0.26856 -0.26855,0.26855 -0.26855,0.58545 0,0.31689 0.24707,0.51562 0.25244,0.19336 1.06348,0.37598 1.06884,0.2417 1.58984,0.63379 0.52637,0.39209 0.52637,1.10644 0,0.76807 -0.61768,1.2461 -0.6123,0.47803 -1.62744,0.47803 -1.15479,0 -1.76709,-0.59082 -0.61231,-0.59083 -0.61231,-1.31055 h 0.99903 q 0.0322,0.61767 0.47265,0.854 0.44581,0.23096 0.90772,0.23096 0.60693,0 0.9292,-0.23633 0.32226,-0.23633 0.32226,-0.59619 z m 5.67725,0 q 0,-0.31689 -0.23633,-0.56934 -0.23095,-0.25781 -1.07422,-0.42968 -0.97216,-0.19873 -1.54687,-0.57471 -0.57471,-0.38135 -0.57471,-1.10645 0,-0.6875 0.58545,-1.19238 0.59082,-0.50488 1.56836,-0.50488 1.04199,0 1.62744,0.53174 0.58545,0.53173 0.58545,1.28369 h -0.99365 q 0,-0.35987 -0.3169,-0.67676 -0.31689,-0.32227 -0.90234,-0.32227 -0.61768,0 -0.88623,0.26856 -0.26856,0.26855 -0.26856,0.58545 0,0.31689 0.24708,0.51562 0.25244,0.19336 1.06347,0.37598 1.06885,0.2417 1.58985,0.63379 0.52636,0.39209 0.52636,1.10644 0,0.76807 -0.61767,1.2461 -0.61231,0.47803 -1.62744,0.47803 -1.15479,0 -1.76709,-0.59082 -0.61231,-0.59083 -0.61231,-1.31055 h 0.99902 q 0.0322,0.61767 0.47266,0.854 0.4458,0.23096 0.90772,0.23096 0.60693,0 0.92919,-0.23633 0.32227,-0.23633 0.32227,-0.59619 z m 5.88135,1.5415 q -0.0967,-0.20947 -0.13965,-0.6123 -0.2793,0.29541 -0.69824,0.51025 -0.41895,0.20948 -0.95606,0.20948 -0.8916,0 -1.42871,-0.49952 -0.53711,-0.49951 -0.53711,-1.22461 0,-0.93457 0.70899,-1.41796 0.70898,-0.48877 1.90673,-0.48877 h 0.98292 v -0.46192 q 0,-0.51562 -0.31153,-0.82178 -0.30615,-0.31152 -0.91308,-0.31152 -0.56397,0 -0.91309,0.2793 -0.34375,0.27392 -0.34375,0.63916 h -0.99365 q 0,-0.62305 0.62842,-1.1709 0.62841,-0.54785 1.68115,-0.54785 0.94531,0 1.55224,0.4834 0.60694,0.4834 0.60694,1.46093 v 2.61036 q 0,0.80566 0.2041,1.27832 v 0.0859 z m -1.64893,-0.76269 q 0.53711,0 0.9292,-0.26856 0.39746,-0.26855 0.5586,-0.59619 v -1.19775 h -0.92383 q -1.67578,0.0322 -1.67578,1.07422 0,0.41357 0.27929,0.70361 0.2793,0.28467 0.83252,0.28467 z m 7.64844,0.76269 -0.0215,-0.5747 q -0.56934,0.68213 -1.69727,0.68213 -0.854,0 -1.38037,-0.50489 -0.52637,-0.50488 -0.52637,-1.66504 v -3.74902 h 0.99365 v 3.75977 q 0,0.78418 0.32764,1.05273 0.33301,0.26318 0.74121,0.26318 1.12256,0 1.51465,-0.84326 v -4.23242 h 0.99902 v 5.81152 z m 4.66748,2.29346 q -0.45117,0 -1.10645,-0.22021 -0.65527,-0.22022 -1.04736,-0.78956 l 0.521,-0.59082 q 0.64453,0.78418 1.55761,0.78418 0.70362,0 1.12256,-0.39746 0.41895,-0.39209 0.41895,-1.15478 v -0.51026 q -0.59082,0.69288 -1.62744,0.69288 -1.04737,0 -1.66504,-0.8379 -0.61768,-0.83789 -0.61768,-2.11084 v -0.11279 q 0,-1.33203 0.61231,-2.14844 0.61767,-0.8164 1.68115,-0.8164 1.06885,0 1.65967,0.75195 l 0.0483,-0.64453 h 0.90234 v 5.68799 q 0,1.15478 -0.6875,1.7832 -0.6875,0.63379 -1.77246,0.63379 z m -1.4502,-5.13477 q 0,0.86475 0.35987,1.4878 0.36523,0.61767 1.1709,0.61767 0.94531,0 1.38574,-0.85937 v -2.64795 q -0.18799,-0.35986 -0.521,-0.59619 -0.33301,-0.2417 -0.854,-0.2417 -0.81104,0 -1.17627,0.63379 -0.36524,0.62842 -0.36524,1.49316 z m 9.00733,2.84131 q -0.0967,-0.20947 -0.13965,-0.6123 -0.2793,0.29541 -0.69824,0.51025 -0.41895,0.20948 -0.95606,0.20948 -0.8916,0 -1.42871,-0.49952 -0.53711,-0.49951 -0.53711,-1.22461 0,-0.93457 0.70899,-1.41796 0.70898,-0.48877 1.90674,-0.48877 h 0.98291 v -0.46192 q 0,-0.51562 -0.31153,-0.82178 -0.30615,-0.31152 -0.91308,-0.31152 -0.56397,0 -0.91309,0.2793 -0.34375,0.27392 -0.34375,0.63916 h -0.99365 q 0,-0.62305 0.62842,-1.1709 0.62841,-0.54785 1.68115,-0.54785 0.94531,0 1.55224,0.4834 0.60694,0.4834 0.60694,1.46093 v 2.61036 q 0,0.80566 0.2041,1.27832 v 0.0859 z m -1.64893,-0.76269 q 0.53711,0 0.9292,-0.26856 0.39746,-0.26855 0.5586,-0.59619 v -1.19775 h -0.92383 q -1.67578,0.0322 -1.67578,1.07422 0,0.41357 0.27929,0.70361 0.2793,0.28467 0.83252,0.28467 z"
           id="text1-1-7"
           style="font-size:11px;line-height:30.05px;font-family:Roboto;-inkscape-font-specification:'Roboto, Normal';text-align:center;text-anchor:middle;stroke:#ffffff;stroke-width:2.6;stroke-linecap:round;stroke-linejoin:round;stroke-dasharray:none"
           aria-label="Mississauga" /><path
           d="m -590.2439,-342.82642 2.55664,-6.37548 h 1.33204 v 7.82031 h -1.03125 v -3.05078 l 0.10205,-3.271 -2.57276,6.32178 h -0.78418 l -2.56738,-6.33252 0.10205,3.28174 v 3.05078 h -1.03125 v -7.82031 h 1.33203 z m 5.56446,-5.9082 q 0,-0.2417 0.14502,-0.4082 0.15039,-0.16651 0.44043,-0.16651 0.28466,0 0.43505,0.16651 0.15577,0.1665 0.15577,0.4082 0,0.23096 -0.15577,0.39746 -0.15039,0.16113 -0.43505,0.16113 -0.29004,0 -0.44043,-0.16113 -0.14502,-0.1665 -0.14502,-0.39746 z m 1.07422,1.5415 v 5.81153 h -0.99903 v -5.81153 z m 2.6748,-2.43847 v 8.25 h -0.99902 v -8.25 z m 4.05518,8.25 q -0.33838,0.10742 -0.76807,0.10742 -0.55322,0 -0.94531,-0.33838 -0.39209,-0.33838 -0.39209,-1.21387 v -3.604 h -1.06348 v -0.7627 h 1.06348 v -1.41259 h 0.99365 v 1.41259 h 1.08496 v 0.7627 h -1.08496 v 3.60938 q 0,0.4458 0.19336,0.56933 0.19336,0.12354 0.4458,0.12354 0.18799,0 0.46728,-0.0645 z m 0.76806,-2.96485 q 0,-1.2622 0.70899,-2.10546 0.70898,-0.84864 1.92822,-0.84864 1.21924,0 1.92822,0.83252 0.70899,0.82715 0.7251,2.06787 v 0.17725 q 0,1.26221 -0.71436,2.10547 -0.70898,0.84326 -1.92822,0.84326 -1.22461,0 -1.93896,-0.84326 -0.70899,-0.84326 -0.70899,-2.10547 z m 0.99365,0.12354 q 0,0.86475 0.40821,1.49853 0.41357,0.63379 1.24609,0.63379 0.81104,0 1.22461,-0.62304 0.41358,-0.62842 0.41895,-1.49317 v -0.13965 q 0,-0.854 -0.41358,-1.49316 -0.41357,-0.64453 -1.24072,-0.64453 -0.82178,0 -1.23535,0.64453 -0.40821,0.63916 -0.40821,1.49316 z m 7.95459,-2.23975 q -0.47802,0 -0.84326,0.25782 -0.36523,0.25781 -0.5747,0.67138 v 4.15186 h -0.99366 v -5.81153 h 0.93994 l 0.0322,0.7251 q 0.66065,-0.83252 1.73486,-0.83252 0.85401,0 1.35352,0.47803 0.50488,0.47803 0.51025,1.60596 v 3.83496 h -0.99902 v -3.81885 q 0,-0.68213 -0.30078,-0.97217 -0.29541,-0.29004 -0.85938,-0.29004 z"
           id="text1-1-31-6"
           style="font-size:11px;line-height:30.05px;font-family:Roboto;-inkscape-font-specification:'Roboto, Normal';text-align:center;text-anchor:middle;stroke:#ffffff;stroke-width:2.6;stroke-linecap:round;stroke-linejoin:round;stroke-dasharray:none"
           aria-label="Milton" /><path
           d="m -448.3576,-403.65268 q 0,1.0957 -0.70899,1.67578 -0.70361,0.58008 -1.87451,0.58008 h -2.73926 v -7.82031 h 2.56201 q 1.20313,0 1.87451,0.49951 0.67676,0.49414 0.67676,1.58447 0,0.54248 -0.31152,0.9668 -0.30615,0.41894 -0.84326,0.6499 0.66064,0.18262 1.00976,0.69287 0.3545,0.51026 0.3545,1.1709 z m -4.28614,-4.71582 v 2.48145 h 1.55762 q 0.66602,0 1.07422,-0.33301 0.4082,-0.33301 0.4082,-0.92383 0,-1.19775 -1.45019,-1.22461 z m 3.25489,4.72656 q 0,-0.65527 -0.35987,-1.03125 -0.35449,-0.38134 -1.14404,-0.38134 h -1.75098 v 2.81445 h 1.70264 q 0.73584,0 1.14404,-0.37598 0.40821,-0.38135 0.40821,-1.02588 z m 4.73193,-2.71777 q -0.97217,0 -1.32666,0.83789 v 4.125 h -0.99365 v -5.81152 h 0.96679 l 0.0215,0.66601 q 0.47802,-0.77344 1.38037,-0.77344 0.2793,0 0.44043,0.0752 l -0.005,0.92383 q -0.22022,-0.043 -0.4834,-0.043 z m 4.78027,4.96289 q -0.0967,-0.20947 -0.13965,-0.6123 -0.27929,0.29541 -0.69824,0.51025 -0.41894,0.20947 -0.95605,0.20947 -0.8916,0 -1.42871,-0.49951 -0.53711,-0.49951 -0.53711,-1.22461 0,-0.93457 0.70898,-1.41797 0.70899,-0.48877 1.90674,-0.48877 h 0.98291 v -0.46191 q 0,-0.51563 -0.31152,-0.82178 -0.30616,-0.31152 -0.91309,-0.31152 -0.56396,0 -0.91309,0.27929 -0.34375,0.27393 -0.34375,0.63916 h -0.99365 q 0,-0.62304 0.62842,-1.17089 0.62842,-0.54786 1.68115,-0.54786 0.94531,0 1.55225,0.4834 0.60693,0.4834 0.60693,1.46094 v 2.61035 q 0,0.80567 0.2041,1.27832 v 0.0859 z m -1.64892,-0.7627 q 0.53711,0 0.9292,-0.26855 0.39746,-0.26855 0.55859,-0.59619 v -1.19776 h -0.92383 q -1.67578,0.0322 -1.67578,1.07422 0,0.41358 0.2793,0.70362 0.27929,0.28466 0.83252,0.28466 z m 6.37011,-4.31835 q -0.97754,0 -1.3374,0.82177 v 4.25928 h -0.99902 v -5.81152 h 0.94531 l 0.0269,0.63379 q 0.62841,-0.74122 1.71875,-0.74122 0.55859,0 0.99365,0.22559 0.44043,0.22022 0.67138,0.70898 0.29004,-0.41894 0.75196,-0.67675 0.46728,-0.25782 1.0957,-0.25782 0.93457,0 1.43945,0.49952 0.51026,0.49951 0.51026,1.60058 v 3.81885 h -0.99903 v -3.82959 q 0,-0.73047 -0.33837,-0.98828 -0.33301,-0.26318 -0.90235,-0.26318 -0.60156,0 -0.94531,0.35986 -0.34375,0.35449 -0.39746,0.86474 v 3.85645 h -0.99365 v -3.82422 q 0,-0.68213 -0.33838,-0.9668 -0.33838,-0.29003 -0.90235,-0.29003 z m 9.97412,5.18847 q -1.04736,0 -1.65966,-0.67138 v 2.79833 h -0.99903 v -8.04589 h 0.91309 l 0.0483,0.63916 q 0.6123,-0.74659 1.68115,-0.74659 1.10108,0 1.68652,0.81641 0.58545,0.81641 0.58545,2.14844 v 0.11279 q 0,1.27295 -0.59082,2.11084 -0.58545,0.83789 -1.66504,0.83789 z m -0.30615,-5.18847 q -0.90234,0 -1.35351,0.80029 v 2.78222 q 0.45654,0.78956 1.36425,0.78956 0.80567,0 1.17627,-0.63379 0.37598,-0.63379 0.37598,-1.49854 v -0.11279 q 0,-0.86475 -0.37598,-1.49317 -0.3706,-0.63378 -1.18701,-0.63378 z m 6.28955,5.08105 q -0.33838,0.10742 -0.76806,0.10742 -0.55323,0 -0.94532,-0.33838 -0.39209,-0.33838 -0.39209,-1.21386 v -3.60401 h -1.06347 v -0.76269 h 1.06347 v -1.4126 h 0.99366 v 1.4126 h 1.08496 v 0.76269 h -1.08496 v 3.60938 q 0,0.4458 0.19336,0.56933 0.19336,0.12354 0.4458,0.12354 0.18799,0 0.46728,-0.0645 z m 0.76807,-2.96484 q 0,-1.26221 0.70898,-2.10547 0.70899,-0.84864 1.92823,-0.84864 1.21923,0 1.92822,0.83252 0.70898,0.82715 0.7251,2.06788 v 0.17724 q 0,1.26221 -0.71436,2.10547 -0.70898,0.84326 -1.92822,0.84326 -1.22461,0 -1.93897,-0.84326 -0.70898,-0.84326 -0.70898,-2.10547 z m 0.99365,0.12353 q 0,0.86475 0.4082,1.49854 0.41358,0.63379 1.2461,0.63379 0.81103,0 1.22461,-0.62305 0.41357,-0.62842 0.41894,-1.49317 v -0.13964 q 0,-0.85401 -0.41357,-1.49317 -0.41358,-0.64453 -1.24072,-0.64453 -0.82178,0 -1.23536,0.64453 -0.4082,0.63916 -0.4082,1.49317 z m 7.95459,-2.23974 q -0.47803,0 -0.84326,0.25781 -0.36523,0.25781 -0.57471,0.67138 v 4.15186 h -0.99365 v -5.81152 h 0.93994 l 0.0322,0.72509 q 0.66064,-0.83252 1.73486,-0.83252 0.85401,0 1.35352,0.47803 0.50488,0.47803 0.51025,1.60596 v 3.83496 h -0.99902 v -3.81885 q 0,-0.68213 -0.30078,-0.97217 -0.29541,-0.29003 -0.85938,-0.29003 z"
           id="text1-1-8-8"
           style="font-size:11px;line-height:30.05px;font-family:Roboto;-inkscape-font-specification:'Roboto, Normal';text-align:center;text-anchor:middle;stroke:#ffffff;stroke-width:2.6;stroke-linecap:round;stroke-linejoin:round;stroke-dasharray:none"
           aria-label="Brampton" /><path
           d="m -509.27463,-244.61089 q 0,1.76172 -0.854,2.76612 -0.85401,1.00439 -2.28272,1.00439 -1.39111,0 -2.27197,-1.00439 -0.88086,-1.0044 -0.88086,-2.76612 v -0.49414 q 0,-1.75634 0.87549,-2.76074 0.87549,-1.00976 2.2666,-1.00976 1.41797,0 2.27197,0.99365 0.85938,0.98828 0.87549,2.7124 z m -1.02588,-0.50488 q 0,-1.39648 -0.55859,-2.13769 -0.55859,-0.74121 -1.56299,-0.74121 -0.96142,0 -1.5415,0.74121 -0.57471,0.74121 -0.57471,2.13769 v 0.50488 q 0,1.40723 0.58008,2.15381 0.58545,0.74121 1.54687,0.74121 1.00977,0 1.55762,-0.74121 0.55322,-0.74658 0.55322,-2.15381 z m 6.01026,4.16797 q -0.0967,-0.20947 -0.13965,-0.6123 -0.2793,0.29541 -0.69824,0.51025 -0.41895,0.20947 -0.95606,0.20947 -0.8916,0 -1.42871,-0.49951 -0.53711,-0.49951 -0.53711,-1.22461 0,-0.93457 0.70899,-1.41797 0.70898,-0.48877 1.90673,-0.48877 h 0.98291 v -0.46191 q 0,-0.51563 -0.31152,-0.82178 -0.30615,-0.31152 -0.91308,-0.31152 -0.56397,0 -0.91309,0.27929 -0.34375,0.27393 -0.34375,0.63917 h -0.99365 q 0,-0.62305 0.62841,-1.1709 0.62842,-0.54785 1.68116,-0.54785 0.94531,0 1.55224,0.48339 0.60694,0.4834 0.60694,1.46094 v 2.61035 q 0,0.80567 0.2041,1.27832 v 0.0859 z m -1.64893,-0.76269 q 0.53711,0 0.9292,-0.26856 0.39746,-0.26855 0.55859,-0.59619 v -1.19775 h -0.92382 q -1.67578,0.0322 -1.67578,1.07421 0,0.41358 0.27929,0.70362 0.2793,0.28467 0.83252,0.28467 z m 7.68604,0.76269 -2.01416,-2.69629 -0.62842,0.6499 v 2.04639 h -0.99902 v -8.25 h 0.99902 v 4.98438 l 0.53174,-0.63379 1.80468,-1.91211 h 1.21387 l -2.2666,2.42236 2.52979,3.38916 z m 6.30566,-5.81152 -2.08935,5.81152 h -0.75733 l -2.10547,-5.81152 h 1.02051 l 1.47705,4.45263 1.43945,-4.45263 z m 0.96143,-1.54151 q 0,-0.2417 0.14502,-0.4082 0.15039,-0.1665 0.44043,-0.1665 0.28466,0 0.43505,0.1665 0.15577,0.1665 0.15577,0.4082 0,0.23096 -0.15577,0.39746 -0.15039,0.16114 -0.43505,0.16114 -0.29004,0 -0.44043,-0.16114 -0.14502,-0.1665 -0.14502,-0.39746 z m 1.07422,1.54151 v 5.81152 h -0.99903 v -5.81152 z m 2.6748,-2.43848 v 8.25 h -0.99902 v -8.25 z m 2.6748,0 v 8.25 h -0.99902 v -8.25 z m 6.19288,7.23486 q -0.28467,0.42969 -0.80567,0.77881 -0.52099,0.34375 -1.38037,0.34375 -1.21387,0 -1.94434,-0.78955 -0.72509,-0.78955 -0.72509,-2.01953 v -0.22559 q 0,-0.95068 0.35986,-1.61669 0.36523,-0.67139 0.94531,-1.02051 0.58008,-0.35449 1.23535,-0.35449 1.2461,0 1.81543,0.8164 0.57471,0.81104 0.57471,2.03027 v 0.44581 h -3.93164 q 0.0215,0.80029 0.47266,1.36425 0.45654,0.5586 1.25146,0.5586 0.52637,0 0.8916,-0.21485 0.36524,-0.21484 0.63916,-0.5747 z m -2.31495,-4.0874 q -0.59082,0 -0.99902,0.42969 -0.4082,0.42969 -0.51025,1.23535 h 2.90576 v -0.0752 q -0.0376,-0.58008 -0.33838,-1.08497 -0.29541,-0.50488 -1.05811,-0.50488 z"
           id="text1-1-6-3"
           style="font-size:11px;line-height:30.05px;font-family:Roboto;-inkscape-font-specification:'Roboto, Normal';text-align:center;text-anchor:middle;stroke:#ffffff;stroke-width:2.6;stroke-linecap:round;stroke-linejoin:round;stroke-dasharray:none"
           aria-label="Oakville" /><path
           d="m -597.16169,-218.45102 q 0,1.0957 -0.70898,1.67578 -0.70361,0.58007 -1.87451,0.58007 h -2.73926 v -7.82031 h 2.56201 q 1.20313,0 1.87451,0.49951 0.67676,0.49414 0.67676,1.58448 0,0.54248 -0.31152,0.96679 -0.30615,0.41895 -0.84326,0.64991 0.66064,0.18261 1.00976,0.69287 0.35449,0.51025 0.35449,1.1709 z m -4.28613,-4.71582 v 2.48144 h 1.55762 q 0.66601,0 1.07422,-0.33301 0.4082,-0.33301 0.4082,-0.92383 0,-1.19775 -1.4502,-1.2246 z m 3.25488,4.72656 q 0,-0.65528 -0.35986,-1.03125 -0.35449,-0.38135 -1.14404,-0.38135 h -1.75098 v 2.81445 h 1.70264 q 0.73584,0 1.14404,-0.37597 0.4082,-0.38135 0.4082,-1.02588 z m 6.01563,2.24511 -0.0215,-0.5747 q -0.56933,0.68213 -1.69726,0.68213 -0.854,0 -1.38037,-0.50489 -0.52637,-0.50488 -0.52637,-1.66504 v -3.74902 h 0.99365 v 3.75977 q 0,0.78418 0.32764,1.05273 0.33301,0.26318 0.74121,0.26318 1.12256,0 1.51465,-0.84326 v -4.23242 h 0.99902 v 5.81152 z m 4.78027,-4.96289 q -0.97217,0 -1.32666,0.83789 v 4.125 h -0.99365 v -5.81152 h 0.9668 l 0.0215,0.66602 q 0.47803,-0.77344 1.38037,-0.77344 0.2793,0 0.44043,0.0752 l -0.005,0.92383 q -0.22021,-0.043 -0.4834,-0.043 z m 2.48682,-3.28711 v 8.25 h -0.99902 v -8.25 z m 1.60058,0.89698 q 0,-0.2417 0.14502,-0.40821 0.15039,-0.1665 0.44043,-0.1665 0.28467,0 0.43506,0.1665 0.15576,0.16651 0.15576,0.40821 0,0.23095 -0.15576,0.39746 -0.15039,0.16113 -0.43506,0.16113 -0.29004,0 -0.44043,-0.16113 -0.14502,-0.16651 -0.14502,-0.39746 z m 1.07422,1.5415 v 5.81152 h -0.99902 v -5.81152 z m 4.00684,0.73047 q -0.47803,0 -0.84326,0.25781 -0.36524,0.25782 -0.57471,0.67139 v 4.15185 h -0.99365 v -5.81152 h 0.93994 l 0.0322,0.7251 q 0.66064,-0.83252 1.73486,-0.83252 0.854,0 1.35352,0.47803 0.50488,0.47802 0.51025,1.60595 v 3.83496 h -0.99902 v -3.81884 q 0,-0.68213 -0.30079,-0.97217 -0.29541,-0.29004 -0.85937,-0.29004 z m 5.8706,7.37451 q -0.45117,0 -1.10644,-0.22021 -0.65527,-0.22022 -1.04736,-0.78955 l 0.52099,-0.59082 q 0.64453,0.78418 1.55762,0.78418 0.70361,0 1.12256,-0.39747 0.41894,-0.39209 0.41894,-1.15478 v -0.51025 q -0.59082,0.69287 -1.62744,0.69287 -1.04736,0 -1.66504,-0.83789 -0.61767,-0.83789 -0.61767,-2.11084 v -0.1128 q 0,-1.33203 0.6123,-2.14843 0.61768,-0.81641 1.68115,-0.81641 1.06885,0 1.65967,0.75195 l 0.0483,-0.64453 h 0.90235 v 5.68799 q 0,1.15478 -0.6875,1.7832 -0.6875,0.63379 -1.77247,0.63379 z m -1.45019,-5.13476 q 0,0.86474 0.35986,1.48779 0.36524,0.61767 1.1709,0.61767 0.94531,0 1.38574,-0.85937 v -2.64795 q -0.18798,-0.35986 -0.52099,-0.59619 -0.33301,-0.2417 -0.85401,-0.2417 -0.81103,0 -1.17627,0.63379 -0.36523,0.62842 -0.36523,1.49316 z m 7.87939,2.8413 q -0.33837,0.10743 -0.76806,0.10743 -0.55322,0 -0.94531,-0.33838 -0.39209,-0.33838 -0.39209,-1.21387 v -3.604 h -1.06348 v -0.7627 h 1.06348 v -1.4126 h 0.99365 v 1.4126 h 1.08496 v 0.7627 h -1.08496 v 3.60937 q 0,0.4458 0.19336,0.56934 0.19336,0.12353 0.4458,0.12353 0.18799,0 0.46728,-0.0645 z m 0.76807,-2.96484 q 0,-1.26221 0.70898,-2.10547 0.70899,-0.84863 1.92823,-0.84863 1.21924,0 1.92822,0.83252 0.70898,0.82715 0.7251,2.06787 v 0.17725 q 0,1.2622 -0.71436,2.10546 -0.70898,0.84327 -1.92822,0.84327 -1.22461,0 -1.93897,-0.84327 -0.70898,-0.84326 -0.70898,-2.10546 z m 0.99365,0.12354 q 0,0.86474 0.40821,1.49853 0.41357,0.63379 1.24609,0.63379 0.81103,0 1.22461,-0.62305 0.41357,-0.62841 0.41894,-1.49316 v -0.13965 q 0,-0.854 -0.41357,-1.49316 -0.41357,-0.64453 -1.24072,-0.64453 -0.82178,0 -1.23535,0.64453 -0.40821,0.63916 -0.40821,1.49316 z m 7.95459,-2.23975 q -0.47802,0 -0.84326,0.25781 -0.36523,0.25782 -0.57471,0.67139 v 4.15185 h -0.99365 v -5.81152 h 0.93994 l 0.0322,0.7251 q 0.66064,-0.83252 1.73486,-0.83252 0.85401,0 1.35352,0.47803 0.50488,0.47802 0.51025,1.60595 v 3.83496 h -0.99902 v -3.81884 q 0,-0.68213 -0.30078,-0.97217 -0.29541,-0.29004 -0.85938,-0.29004 z"
           id="text1-1-6-2-4"
           style="font-size:11px;line-height:30.05px;font-family:Roboto;-inkscape-font-specification:'Roboto, Normal';text-align:center;text-anchor:middle;stroke:#ffffff;stroke-width:2.6;stroke-linecap:round;stroke-linejoin:round;stroke-dasharray:none"
           aria-label="Burlington" /><path
           d="m 12.746298,-233.80745 q 0,1.76172 -0.854004,2.76611 -0.854004,1.0044 -2.2827149,1.0044 -1.3911133,0 -2.2719727,-1.0044 -0.8808593,-1.00439 -0.8808593,-2.76611 v -0.49414 q 0,-1.75635 0.8754882,-2.76074 0.8754883,-1.00977 2.2666016,-1.00977 1.4179691,0 2.2719731,0.99365 0.859375,0.98829 0.875488,2.71241 z m -1.025879,-0.50488 q 0,-1.39649 -0.558594,-2.1377 -0.558594,-0.74121 -1.5629881,-0.74121 -0.9614258,0 -1.5415039,0.74121 -0.574707,0.74121 -0.574707,2.1377 v 0.50488 q 0,1.40723 0.5800781,2.15381 0.5854492,0.74121 1.546875,0.74121 1.0097659,0 1.5576169,-0.74121 0.553223,-0.74658 0.553223,-2.15381 z m 5.806152,2.62646 q 0,-0.31689 -0.236328,-0.56933 -0.230957,-0.25782 -1.074219,-0.42969 -0.972168,-0.19873 -1.546875,-0.57471 -0.574707,-0.38135 -0.574707,-1.10644 0,-0.6875 0.58545,-1.19239 0.59082,-0.50488 1.568359,-0.50488 1.041992,0 1.627441,0.53174 0.58545,0.53174 0.58545,1.28369 h -0.993653 q 0,-0.35986 -0.316894,-0.67676 -0.316895,-0.32226 -0.902344,-0.32226 -0.617676,0 -0.886231,0.26855 -0.268554,0.26856 -0.268554,0.58545 0,0.3169 0.24707,0.51563 0.252442,0.19336 1.063477,0.37597 1.068847,0.2417 1.589843,0.63379 0.526368,0.39209 0.526368,1.10645 0,0.76806 -0.617676,1.24609 -0.612305,0.47803 -1.627442,0.47803 -1.154785,0 -1.767089,-0.59082 -0.612305,-0.59082 -0.612305,-1.31055 h 0.999023 q 0.03223,0.61768 0.472657,0.85401 0.4458,0.23095 0.907714,0.23095 0.606934,0 0.9292,-0.23633 0.322265,-0.23632 0.322265,-0.59619 z m 4.705078,-3.53955 q -0.478027,0 -0.843261,0.25781 -0.365235,0.25782 -0.574707,0.67139 v 4.15186 h -0.993653 v -8.25 h 0.993653 v 3.13134 q 0.660644,-0.80029 1.713379,-0.80029 0.854003,0 1.353515,0.47803 0.504883,0.47803 0.510254,1.60596 v 3.83496 h -0.999023 v -3.81885 q 0,-0.68213 -0.300782,-0.97217 -0.29541,-0.29004 -0.859375,-0.29004 z m 7.234864,5.08106 q -0.09668,-0.20948 -0.139649,-0.61231 -0.279297,0.29541 -0.698242,0.51026 -0.418945,0.20947 -0.956055,0.20947 -0.891601,0 -1.428711,-0.49951 -0.537109,-0.49951 -0.537109,-1.22461 0,-0.93457 0.708984,-1.41797 0.708985,-0.48877 1.906739,-0.48877 h 0.98291 v -0.46191 q 0,-0.51563 -0.311524,-0.82178 -0.306152,-0.31153 -0.913086,-0.31153 -0.563964,0 -0.913085,0.2793 -0.34375,0.27393 -0.34375,0.63916 h -0.993653 q 0,-0.62305 0.628418,-1.1709 0.628418,-0.54785 1.681153,-0.54785 0.945312,0 1.552246,0.4834 0.606933,0.4834 0.606933,1.46094 v 2.61035 q 0,0.80566 0.204102,1.27832 v 0.0859 z m -1.648926,-0.7627 q 0.537109,0 0.929199,-0.26855 0.397461,-0.26856 0.558594,-0.59619 v -1.19776 h -0.923828 q -1.675782,0.0322 -1.675782,1.07422 0,0.41357 0.279297,0.70361 0.279297,0.28467 0.83252,0.28467 z m 11.29541,-5.04883 -1.686523,5.81153 H 36.62081 l -1.412598,-4.39893 -1.375,4.39893 h -0.811035 l -1.686524,-5.81153 h 0.993653 l 1.144043,4.33985 1.353515,-4.33985 h 0.800293 l 1.375,4.43116 1.122559,-4.43116 z m 4.603027,5.81153 q -0.09668,-0.20948 -0.139648,-0.61231 -0.279297,0.29541 -0.698242,0.51026 -0.418946,0.20947 -0.956055,0.20947 -0.891601,0 -1.428711,-0.49951 -0.537109,-0.49951 -0.537109,-1.22461 0,-0.93457 0.708984,-1.41797 0.708985,-0.48877 1.906738,-0.48877 h 0.982911 v -0.46191 q 0,-0.51563 -0.311524,-0.82178 -0.306152,-0.31153 -0.913086,-0.31153 -0.563965,0 -0.913086,0.2793 -0.34375,0.27393 -0.34375,0.63916 h -0.993652 q 0,-0.62305 0.628418,-1.1709 0.628418,-0.54785 1.681152,-0.54785 0.945313,0 1.552246,0.4834 0.606934,0.4834 0.606934,1.46094 v 2.61035 q 0,0.80566 0.204101,1.27832 v 0.0859 z m -1.648925,-0.7627 q 0.537109,0 0.929199,-0.26855 0.397461,-0.26856 0.558594,-0.59619 v -1.19776 h -0.923829 q -1.675781,0.0322 -1.675781,1.07422 0,0.41357 0.279297,0.70361 0.279297,0.28467 0.83252,0.28467 z"
           id="text1-1-3-5"
           style="font-size:11px;line-height:30.05px;font-family:Roboto;-inkscape-font-specification:'Roboto, Normal';text-align:center;text-anchor:middle;stroke:#ffffff;stroke-width:2.6;stroke-linecap:round;stroke-linejoin:round;stroke-dasharray:none"
           aria-label="Oshawa" /></g></g><path
       style="fill:none;stroke:#ffffff;stroke-width:3;stroke-linecap:round;stroke-linejoin:miter;stroke-dasharray:none;stroke-dashoffset:0;stroke-opacity:1"
       d="m 333.86714,340.81759 c 0,-11.875 0.128,-43.37269 0.128,-54.50963"
       id="path5-3"
       sodipodi:nodetypes="cc" /><text
       xml:space="preserve"
       style="font-style:normal;font-variant:normal;font-weight:normal;font-stretch:normal;font-size:11px;line-height:30.05px;font-family:Roboto;-inkscape-font-specification:'Roboto, Normal';font-variant-ligatures:normal;font-variant-caps:normal;font-variant-numeric:normal;font-variant-east-asian:normal;text-align:center;text-anchor:middle"
       x="478.39081"
       y="170.23741"
       id="text1-9"><tspan
         sodipodi:role="line"
         id="tspan1-6"
         x="478.39081"
         y="170.23741"
         style="font-style:normal;font-variant:normal;font-weight:normal;font-stretch:normal;font-size:11px;font-family:Roboto;-inkscape-font-specification:'Roboto, Normal';font-variant-ligatures:normal;font-variant-caps:normal;font-variant-numeric:normal;font-variant-east-asian:normal">Markham</tspan></text><text
       xml:space="preserve"
       style="font-style:normal;font-variant:normal;font-weight:normal;font-stretch:normal;font-size:11px;line-height:30.05px;font-family:Roboto;-inkscape-font-specification:'Roboto, Normal';font-variant-ligatures:normal;font-variant-caps:normal;font-variant-numeric:normal;font-variant-east-asian:normal;text-align:center;text-anchor:middle"
       x="379.7388"
       y="217.30771"
       id="text1-9-3"><tspan
         sodipodi:role="line"
         id="tspan1-6-37"
         x="379.7388"
         y="217.30771"
         style="font-style:normal;font-variant:normal;font-weight:normal;font-stretch:normal;font-size:11px;font-family:Roboto;-inkscape-font-specification:'Roboto, Normal';font-variant-ligatures:normal;font-variant-caps:normal;font-variant-numeric:normal;font-variant-east-asian:normal">North York</tspan></text><text
       xml:space="preserve"
       style="font-style:normal;font-variant:normal;font-weight:normal;font-stretch:normal;font-size:11px;line-height:30.05px;font-family:Roboto;-inkscape-font-specification:'Roboto, Normal';font-variant-ligatures:normal;font-variant-caps:normal;font-variant-numeric:normal;font-variant-east-asian:normal;text-align:center;text-anchor:middle"
       x="454.78543"
       y="255.8248"
       id="text1-9-3-2"><tspan
         sodipodi:role="line"
         id="tspan1-6-37-6"
         x="454.78543"
         y="255.8248"
         style="font-style:normal;font-variant:normal;font-weight:normal;font-stretch:normal;font-size:11px;font-family:Roboto;-inkscape-font-specification:'Roboto, Normal';font-variant-ligatures:normal;font-variant-caps:normal;font-variant-numeric:normal;font-variant-east-asian:normal">Scarborough</tspan></text><text
       xml:space="preserve"
       style="font-style:normal;font-variant:normal;font-weight:normal;font-stretch:normal;font-size:11px;line-height:30.05px;font-family:Roboto;-inkscape-font-specification:'Roboto, Normal';font-variant-ligatures:normal;font-variant-caps:normal;font-variant-numeric:normal;font-variant-east-asian:normal;text-align:center;text-anchor:middle"
       x="277.72165"
       y="235.87564"
       id="text1-9-3-2-6"><tspan
         sodipodi:role="line"
         id="tspan1-6-37-6-0"
         x="277.72165"
         y="235.87564"
         style="font-style:normal;font-variant:normal;font-weight:normal;font-stretch:normal;font-size:11px;font-family:Roboto;-inkscape-font-specification:'Roboto, Normal';font-variant-ligatures:normal;font-variant-caps:normal;font-variant-numeric:normal;font-variant-east-asian:normal">Etobicoke</tspan></text><text
       xml:space="preserve"
       style="font-style:normal;font-variant:normal;font-weight:normal;font-stretch:normal;font-size:11px;line-height:30.05px;font-family:Roboto;-inkscape-font-specification:'Roboto, Normal';font-variant-ligatures:normal;font-variant-caps:normal;font-variant-numeric:normal;font-variant-east-asian:normal;text-align:center;text-anchor:middle"
       x="333.6763"
       y="126.10228"
       id="text1-9-1"><tspan
         sodipodi:role="line"
         id="tspan1-6-3"
         x="333.6763"
         y="126.10228"
         style="font-style:normal;font-variant:normal;font-weight:normal;font-stretch:normal;font-size:11px;font-family:Roboto;-inkscape-font-specification:'Roboto, Normal';font-variant-ligatures:normal;font-variant-caps:normal;font-variant-numeric:normal;font-variant-east-asian:normal">Vaughan</tspan></text><text
       xml:space="preserve"
       style="font-style:normal;font-variant:normal;font-weight:normal;font-stretch:normal;font-size:11px;line-height:30.05px;font-family:Roboto;-inkscape-font-specification:'Roboto, Normal';font-variant-ligatures:normal;font-variant-caps:normal;font-variant-numeric:normal;font-variant-east-asian:normal;text-align:center;text-anchor:middle"
       x="496.97479"
       y="28.346779"
       id="text1-9-1-9"><tspan
         sodipodi:role="line"
         id="tspan1-6-3-1"
         x="496.97479"
         y="28.346779"
         style="font-style:normal;font-variant:normal;font-weight:normal;font-stretch:normal;font-size:11px;font-family:Roboto;-inkscape-font-specification:'Roboto, Normal';font-variant-ligatures:normal;font-variant-caps:normal;font-variant-numeric:normal;font-variant-east-asian:normal">Newmarket</tspan></text><text
       xml:space="preserve"
       style="font-style:normal;font-variant:normal;font-weight:normal;font-stretch:normal;font-size:11px;line-height:30.05px;font-family:Roboto;-inkscape-font-specification:'Roboto, Normal';font-variant-ligatures:normal;font-variant-caps:normal;font-variant-numeric:normal;font-variant-east-asian:normal;text-align:center;text-anchor:middle"
       x="196.7841"
       y="235.55338"
       id="text1-1"><tspan
         sodipodi:role="line"
         id="tspan1-0"
         x="196.7841"
         y="235.55338"
         style="font-style:normal;font-variant:normal;font-weight:normal;font-stretch:normal;font-size:11px;font-family:Roboto;-inkscape-font-specification:'Roboto, Normal';font-variant-ligatures:normal;font-variant-caps:normal;font-variant-numeric:normal;font-variant-east-asian:normal">Mississauga</tspan></text><text
       xml:space="preserve"
       style="font-style:normal;font-variant:normal;font-weight:normal;font-stretch:normal;font-size:11px;line-height:30.05px;font-family:Roboto;-inkscape-font-specification:'Roboto, Normal';font-variant-ligatures:normal;font-variant-caps:normal;font-variant-numeric:normal;font-variant-east-asian:normal;text-align:center;text-anchor:middle"
       x="54.717934"
       y="210.59019"
       id="text1-1-31"><tspan
         sodipodi:role="line"
         id="tspan1-0-1"
         x="54.717934"
         y="210.59019"
         style="font-style:normal;font-variant:normal;font-weight:normal;font-stretch:normal;font-size:11px;font-family:Roboto;-inkscape-font-specification:'Roboto, Normal';font-variant-ligatures:normal;font-variant-caps:normal;font-variant-numeric:normal;font-variant-east-asian:normal">Milton</tspan></text><text
       xml:space="preserve"
       style="font-style:normal;font-variant:normal;font-weight:normal;font-stretch:normal;font-size:11px;line-height:30.05px;font-family:Roboto;-inkscape-font-specification:'Roboto, Normal';font-variant-ligatures:normal;font-variant-caps:normal;font-variant-numeric:normal;font-variant-east-asian:normal;text-align:center;text-anchor:middle"
       x="203.78537"
       y="150.57498"
       id="text1-1-8"><tspan
         sodipodi:role="line"
         id="tspan1-0-7"
         x="203.78537"
         y="150.57498"
         style="font-style:normal;font-variant:normal;font-weight:normal;font-stretch:normal;font-size:11px;font-family:Roboto;-inkscape-font-specification:'Roboto, Normal';font-variant-ligatures:normal;font-variant-caps:normal;font-variant-numeric:normal;font-variant-east-asian:normal">Brampton</tspan></text><text
       xml:space="preserve"
       style="font-style:normal;font-variant:normal;font-weight:normal;font-stretch:normal;font-size:11px;line-height:30.05px;font-family:Roboto;-inkscape-font-specification:'Roboto, Normal';font-variant-ligatures:normal;font-variant-caps:normal;font-variant-numeric:normal;font-variant-east-asian:normal;text-align:center;text-anchor:middle"
       x="137.32001"
       y="311.02399"
       id="text1-1-6"><tspan
         sodipodi:role="line"
         id="tspan1-0-4"
         x="137.32001"
         y="311.02399"
         style="font-style:normal;font-variant:normal;font-weight:normal;font-stretch:normal;font-size:11px;font-family:Roboto;-inkscape-font-specification:'Roboto, Normal';font-variant-ligatures:normal;font-variant-caps:normal;font-variant-numeric:normal;font-variant-east-asian:normal">Oakville</tspan></text><text
       xml:space="preserve"
       style="font-style:normal;font-variant:normal;font-weight:normal;font-stretch:normal;font-size:11px;line-height:30.05px;font-family:Roboto;-inkscape-font-specification:'Roboto, Normal';font-variant-ligatures:normal;font-variant-caps:normal;font-variant-numeric:normal;font-variant-east-asian:normal;text-align:center;text-anchor:middle"
       x="56.008144"
       y="335.90161"
       id="text1-1-6-2"><tspan
         sodipodi:role="line"
         id="tspan1-0-4-6"
         x="56.008144"
         y="335.90161"
         style="font-style:normal;font-variant:normal;font-weight:normal;font-stretch:normal;font-size:11px;font-family:Roboto;-inkscape-font-specification:'Roboto, Normal';font-variant-ligatures:normal;font-variant-caps:normal;font-variant-numeric:normal;font-variant-east-asian:normal">Burlington</tspan></text><text
       xml:space="preserve"
       style="font-style:normal;font-variant:normal;font-weight:normal;font-stretch:normal;font-size:11px;line-height:30.05px;font-family:Roboto;-inkscape-font-specification:'Roboto, Normal';font-variant-ligatures:normal;font-variant-caps:normal;font-variant-numeric:normal;font-variant-east-asian:normal;text-align:center;text-anchor:middle"
       x="659.95325"
       y="321.82742"
       id="text1-1-3"><tspan
         sodipodi:role="line"
         id="tspan1-0-3"
         x="659.95325"
         y="321.82742"
         style="font-style:normal;font-variant:normal;font-weight:normal;font-stretch:normal;font-size:11px;font-family:Roboto;-inkscape-font-specification:'Roboto, Normal';font-variant-ligatures:normal;font-variant-caps:normal;font-variant-numeric:normal;font-variant-east-asian:normal">Oshawa</tspan></text><path
       style="fill:none;stroke:#007fa3;stroke-width:1px;stroke-linecap:butt;stroke-linejoin:miter;stroke-dasharray:4, 1;stroke-dashoffset:0;stroke-opacity:1"
       d="m 333.86714,340 c 0,-11.875 0.128,-43.37269 0.128,-54.50963"
       id="path5"
       sodipodi:nodetypes="cc" /><path
       style="fill:none;stroke:#007fa3;stroke-width:1px;stroke-linecap:butt;stroke-linejoin:miter;stroke-opacity:1"
       d="m 405.8999,340 c 0,-11.875 -0.247,-23.65314 -0.247,-34.79008"
       id="path5-4"
       sodipodi:nodetypes="cc" /><g
       id="g6"
       style="fill:#ffffff;stroke-width:3;stroke-dasharray:none" /><text
       xml:space="preserve"
       style="font-style:normal;font-variant:normal;font-weight:normal;font-stretch:normal;font-size:16px;line-height:54.6364px;font-family:Roboto;-inkscape-font-specification:'Roboto, Normal';font-variant-ligatures:normal;font-variant-caps:normal;font-variant-numeric:normal;font-variant-east-asian:normal;text-align:center;text-anchor:middle"
       x="31.44001"
       y="24.639969"
       id="text1-9-3-2-6-6"><tspan
         sodipodi:role="line"
         id="tspan1-6-37-6-0-6"
         x="31.44001"
         y="24.639969"
         style="font-style:normal;font-variant:normal;font-weight:normal;font-stretch:normal;font-size:20px;line-height:54.6364px;font-family:'TradeGothic LT Bold';-inkscape-font-specification:'TradeGothic LT Bold, Normal';font-variant-ligatures:normal;font-variant-caps:normal;font-variant-numeric:normal;font-variant-east-asian:normal">2021</tspan></text></g></svg>
